<svg
  width="64"
  height="64"
  viewBox="0 0 64 64"
  fill="none"
  xmlns="http://www.w3.org/2000/svg"
>
  <rect x="26.6667" y="7.11133" width="10.6667" height="3.55556" fill="white" />
  <rect x="26.6667" y="53.333" width="10.6667" height="3.55556" fill="white" />
  <rect x="19.5554" y="10.666" width="8.88889" height="3.55556" fill="white" />
  <rect x="19.5554" y="49.7773" width="8.88889" height="3.55556" fill="white" />
  <rect x="12.4443" y="14.2217" width="7.11111" height="3.55556" fill="white" />
  <rect x="12.4443" y="46.2217" width="7.11111" height="3.55556" fill="white" />
  <rect x="10.6667" y="17.7773" width="5.33333" height="7.11111" fill="white" />
  <rect x="10.6667" y="39.1104" width="5.33333" height="7.11111" fill="white" />
  <rect x="7.11108" y="24.8887" width="5.33333" height="14.2222" fill="white" />
  <rect
    width="8.88889"
    height="3.55556"
    transform="matrix(-1 0 0 1 44.4446 10.666)"
    fill="white"
  />
  <rect
    width="8.88889"
    height="3.55556"
    transform="matrix(-1 0 0 1 44.4446 49.7773)"
    fill="white"
  />
  <rect
    width="7.11111"
    height="3.55556"
    transform="matrix(-1 0 0 1 51.5557 14.2217)"
    fill="white"
  />
  <rect
    width="7.11111"
    height="3.55556"
    transform="matrix(-1 0 0 1 51.5557 46.2217)"
    fill="white"
  />
  <rect
    width="5.33333"
    height="7.11111"
    transform="matrix(-1 0 0 1 53.3333 17.7773)"
    fill="white"
  />
  <rect
    width="5.33333"
    height="7.11111"
    transform="matrix(-1 0 0 1 53.3333 39.1104)"
    fill="white"
  />
  <rect
    width="5.33333"
    height="14.2222"
    transform="matrix(-1 0 0 1 56.8889 24.8887)"
    fill="white"
  />
  <rect x="17.7778" y="32" width="3.55556" height="3.55556" fill="white" />
  <rect x="33.7778" y="32" width="3.55556" height="3.55556" fill="white" />
  <rect x="37.3333" y="28.4443" width="3.55556" height="3.55556" fill="white" />
  <rect x="40.8889" y="24.8887" width="3.55556" height="3.55556" fill="white" />
  <rect x="21.3333" y="35.5557" width="3.55556" height="3.55556" fill="white" />
  <rect x="30.2222" y="35.5557" width="3.55556" height="3.55556" fill="white" />
  <rect x="24.8889" y="39.1113" width="5.33333" height="3.55556" fill="white" />
</svg>
