<svg
  width="64"
  height="103"
  viewBox="0 0 64 103"
  fill="none"
  xmlns="http://www.w3.org/2000/svg"
>
  <rect
    x="30.2222"
    y="7.11133"
    width="7.11111"
    height="7.11111"
    fill="#5EEAD4"
  />
  <rect
    x="30.2222"
    y="49.7773"
    width="7.11111"
    height="7.11111"
    fill="#5EEAD4"
  />
  <rect
    x="37.3333"
    y="14.2227"
    width="7.11111"
    height="7.11111"
    fill="#5EEAD4"
  />
  <rect
    x="37.3333"
    y="42.667"
    width="7.11111"
    height="7.11111"
    fill="#5EEAD4"
  />
  <rect
    x="44.4443"
    y="21.333"
    width="7.11111"
    height="7.11111"
    fill="#5EEAD4"
  />
  <path d="M51.5557 28.4443H58.6668V35.5554H51.5557V28.4443Z" fill="#5EEAD4" />
  <path d="M37.3333 28.4443H44.4444V35.5554H37.3333V28.4443Z" fill="#5EEAD4" />
  <path d="M30.2222 28.4443H37.3333V35.5554H30.2222V28.4443Z" fill="#5EEAD4" />
  <path d="M23.1111 28.4443H30.2222V35.5554H23.1111V28.4443Z" fill="#5EEAD4" />
  <path d="M16 28.4443H23.1111V35.5554H16V28.4443Z" fill="#5EEAD4" />
  <path d="M5.33325 28.4443H12.4444V35.5554H5.33325V28.4443Z" fill="#5EEAD4" />
  <path d="M44.4443 35.5557H51.5554V42.6668H44.4443V35.5557Z" fill="#5EEAD4" />
  <path
    d="M24 100.5V88H26.5V85.5H29V83H36.5V85.5H39V88H41.5V100.5H36.5V95.5H29V100.5H24ZM29 93H36.5V88H34V85.5H31.5V88H29V93ZM46.5 100.5V98H51.5V85.5H46.5V83H61.5V85.5H56.5V98H61.5V100.5H46.5Z"
    fill="#5EEAD4"
  />
</svg>
