<svg
  width="32"
  height="56"
  viewBox="0 0 32 56"
  fill="none"
  xmlns="http://www.w3.org/2000/svg"
>
  <rect
    x="15.1111"
    y="3.55566"
    width="3.55556"
    height="3.55556"
    fill="#5EEAD4"
  />
  <rect
    x="15.1111"
    y="24.8887"
    width="3.55556"
    height="3.55556"
    fill="#5EEAD4"
  />
  <rect
    x="18.6667"
    y="7.11133"
    width="3.55556"
    height="3.55556"
    fill="#5EEAD4"
  />
  <rect
    x="18.6667"
    y="21.333"
    width="3.55556"
    height="3.55556"
    fill="#5EEAD4"
  />
  <rect
    x="22.2222"
    y="10.667"
    width="3.55556"
    height="3.55556"
    fill="#5EEAD4"
  />
  <path d="M25.7778 14.2227H29.3334V17.7782H25.7778V14.2227Z" fill="#5EEAD4" />
  <path d="M18.6667 14.2227H22.2223V17.7782H18.6667V14.2227Z" fill="#5EEAD4" />
  <path d="M15.1111 14.2227H18.6666V17.7782H15.1111V14.2227Z" fill="#5EEAD4" />
  <path d="M11.5557 14.2227H15.1112V17.7782H11.5557V14.2227Z" fill="#5EEAD4" />
  <path d="M8 14.2227H11.5556V17.7782H8V14.2227Z" fill="#5EEAD4" />
  <path d="M2.66675 14.2227H6.2223V17.7782H2.66675V14.2227Z" fill="#5EEAD4" />
  <path d="M22.2222 17.7773H25.7777V21.3329H22.2222V17.7773Z" fill="#5EEAD4" />
  <path
    d="M8 54.5V47H9.5V45.5H11V44H15.5V45.5H17V47H18.5V54.5H15.5V51.5H11V54.5H8ZM11 50H15.5V47H14V45.5H12.5V47H11V50ZM21.5 54.5V53H24.5V45.5H21.5V44H30.5V45.5H27.5V53H30.5V54.5H21.5Z"
    fill="#5EEAD4"
  />
</svg>
