<svg
  width="72"
  height="56"
  viewBox="0 0 72 56"
  fill="none"
  xmlns="http://www.w3.org/2000/svg"
>
  <rect
    x="16.8889"
    y="28.4443"
    width="3.55556"
    height="3.55556"
    transform="rotate(180 16.8889 28.4443)"
    fill="#EC4899"
  />
  <rect
    x="16.8889"
    y="7.11133"
    width="3.55556"
    height="3.55556"
    transform="rotate(180 16.8889 7.11133)"
    fill="#EC4899"
  />
  <rect
    x="13.3333"
    y="24.8887"
    width="3.55556"
    height="3.55556"
    transform="rotate(180 13.3333 24.8887)"
    fill="#EC4899"
  />
  <rect
    x="13.3333"
    y="10.667"
    width="3.55556"
    height="3.55556"
    transform="rotate(180 13.3333 10.667)"
    fill="#EC4899"
  />
  <rect
    x="9.77783"
    y="21.333"
    width="3.55556"
    height="3.55556"
    transform="rotate(180 9.77783 21.333)"
    fill="#EC4899"
  />
  <path d="M6.22217 17.7773H2.66661V14.2218H6.22217V17.7773Z" fill="#EC4899" />
  <path d="M13.3333 17.7773H9.7777V14.2218H13.3333V17.7773Z" fill="#EC4899" />
  <path d="M16.8889 17.7773H13.3334V14.2218H16.8889V17.7773Z" fill="#EC4899" />
  <path d="M20.4443 17.7773H16.8888V14.2218H20.4443V17.7773Z" fill="#EC4899" />
  <path d="M24 17.7773H20.4444V14.2218H24V17.7773Z" fill="#EC4899" />
  <path d="M29.3333 17.7773H25.7777V14.2218H29.3333V17.7773Z" fill="#EC4899" />
  <path d="M9.77783 14.2227H6.22228V10.6671H9.77783V14.2227Z" fill="#EC4899" />
  <path
    d="M0 54.5V44H3V45.5H4.5V47H6V48.5H7.5V44H10.5V54.5H7.5V51.5H6V50H4.5V48.5H3V54.5H0ZM13.5 54.5V53H12V48.5H13.5V47H21V48.5H22.5V53H21V54.5H13.5ZM15 53H19.5V48.5H15V53ZM28.5 54.5V48.5H25.5V47H28.5V44H31.5V47H34.5V48.5H31.5V54.5H28.5ZM48 54.5V47H49.5V45.5H51V44H55.5V45.5H57V47H58.5V54.5H55.5V51.5H51V54.5H48ZM51 50H55.5V47H54V45.5H52.5V47H51V50ZM61.5 54.5V53H64.5V45.5H61.5V44H70.5V45.5H67.5V53H70.5V54.5H61.5Z"
    fill="#EC4899"
  />
</svg>
