<svg
  width="120"
  height="102"
  viewBox="0 0 120 102"
  fill="none"
  xmlns="http://www.w3.org/2000/svg"
>
  <rect
    width="7.11111"
    height="7.11111"
    transform="matrix(-1 0 0 1 33.7778 7.11133)"
    fill="#EC4899"
  />
  <rect
    width="7.11111"
    height="7.11111"
    transform="matrix(-1 0 0 1 33.7778 49.7773)"
    fill="#EC4899"
  />
  <rect
    width="7.11111"
    height="7.11111"
    transform="matrix(-1 0 0 1 26.6667 14.2227)"
    fill="#EC4899"
  />
  <rect
    width="7.11111"
    height="7.11111"
    transform="matrix(-1 0 0 1 26.6667 42.667)"
    fill="#EC4899"
  />
  <rect
    width="7.11111"
    height="7.11111"
    transform="matrix(-1 0 0 1 19.5557 21.333)"
    fill="#EC4899"
  />
  <path d="M12.4443 28.4443H5.33322V35.5554H12.4443V28.4443Z" fill="#EC4899" />
  <path d="M26.6667 28.4443H19.5556V35.5554H26.6667V28.4443Z" fill="#EC4899" />
  <path d="M33.7778 28.4443H26.6667V35.5554H33.7778V28.4443Z" fill="#EC4899" />
  <path d="M40.8889 28.4443H33.7778V35.5554H40.8889V28.4443Z" fill="#EC4899" />
  <path d="M48 28.4443H40.8889V35.5554H48V28.4443Z" fill="#EC4899" />
  <path d="M58.6667 28.4443H51.5556V35.5554H58.6667V28.4443Z" fill="#EC4899" />
  <path d="M19.5557 35.5557H12.4446V42.6668H19.5557V35.5557Z" fill="#EC4899" />
  <path
    d="M0 99.5V82H5V84.5H7.5V87H10V89.5H12.5V82H17.5V99.5H12.5V94.5H10V92H7.5V89.5H5V99.5H0ZM22.5 99.5V97H20V84.5H22.5V82H35V84.5H37.5V97H35V99.5H22.5ZM25 97H32.5V84.5H25V97ZM47.5 99.5V84.5H42.5V82H57.5V84.5H52.5V99.5H47.5ZM80 99.5V87H82.5V84.5H85V82H92.5V84.5H95V87H97.5V99.5H92.5V94.5H85V99.5H80ZM85 92H92.5V87H90V84.5H87.5V87H85V92ZM102.5 99.5V97H107.5V84.5H102.5V82H117.5V84.5H112.5V97H117.5V99.5H102.5Z"
    fill="#EC4899"
  />
</svg>
