<svg width="210" height="210" viewBox="0 0 210 210" fill="none" xmlns="http://www.w3.org/2000/svg">
  <path d="M127.333 0.777344H82.6668V15.6662H127.333V0.777344Z" fill="white"/>
  <path d="M82.6668 194.333H52.8887V179.445H90.1109V194.333H119.889V179.444H157.111V194.333H127.333V209.222H82.6668V194.333Z" fill="white"/>
  <path d="M194.333 134.777H179.444V164.555L157.111 164.555V179.444L186.889 179.444V164.555L194.333 164.555V134.777Z" fill="white"/>
  <path d="M194.333 75.2219V134.777H209.222V75.2219H194.333Z" fill="white"/>
  <path d="M157.111 30.5553H186.889V45.4442H194.333V75.2219H179.444V45.4442H157.111V30.5553Z" fill="white"/>
  <path d="M157.111 30.5553H119.889V15.6664H157.111V30.5553Z" fill="white"/>
  <path d="M52.8889 15.6664H90.1112V30.5553H52.8889V15.6664Z" fill="white"/>
  <path d="M15.6667 75.2219V45.4442H23.1112V30.5553H52.8889V45.4442H30.5556V75.2219H15.6667Z" fill="white"/>
  <path d="M15.6667 134.777H0.777832V75.2219H15.6667V134.777Z" fill="white"/>
  <path d="M15.6667 134.777H30.5556V164.555L52.8889 164.555L52.8887 179.445L23.1112 179.444V164.555L15.6667 164.555V134.777Z" fill="white"/>
  <path d="M115 87.9992L115 164.999H90.0001V87.9992H115Z" fill="white"/>
  <path d="M115 69.9992V44.9992H90.0001V69.9992H115Z" fill="white"/>
  </svg>
  