<svg width="25" height="24" viewBox="0 0 25 24" fill="none" xmlns="http://www.w3.org/2000/svg">
  <path d="M18.7031 3.32471H21.3628V5.98443H18.7031V3.32471Z" fill="white"/>
  <path d="M18.7031 10.6387H21.3628V13.2984H18.7031V10.6387Z" fill="white"/>
  <path d="M18.7031 17.9531H21.3628V20.6128H18.7031V17.9531Z" fill="white"/>
  <path d="M16.0435 3.32471H18.7032V5.98443H16.0435V3.32471Z" fill="white"/>
  <path d="M16.0435 10.6387H18.7032V13.2984H16.0435V10.6387Z" fill="white"/>
  <path d="M16.0435 17.9531H18.7032V20.6128H16.0435V17.9531Z" fill="white"/>
  <path d="M13.3838 3.32471H16.0435V5.98443H13.3838V3.32471Z" fill="white"/>
  <path d="M13.3838 10.6387H16.0435V13.2984H13.3838V10.6387Z" fill="white"/>
  <path d="M13.3838 17.9531H16.0435V20.6128H13.3838V17.9531Z" fill="white"/>
  <path d="M10.7241 3.32471H13.3838V5.98443H10.7241V3.32471Z" fill="white"/>
  <path d="M10.7241 10.6387H13.3838V13.2984H10.7241V10.6387Z" fill="white"/>
  <path d="M8.06445 3.32471H10.7242V5.98443H8.06445V3.32471Z" fill="white"/>
  <path d="M4.07471 3.32471H6.73443V5.98443H4.07471V3.32471Z" fill="white"/>
  <path d="M4.07471 10.6387H9.39415V13.2984H4.07471V10.6387Z" fill="white"/>
  <path d="M4.07471 17.9531H12.0539V20.6128H4.07471V17.9531Z" fill="white"/>
  </svg>
  