<svg width="269" height="268" viewBox="0 0 269 268" fill="none" xmlns="http://www.w3.org/2000/svg">
  <rect x="112.167" y="29.7773" width="44.6667" height="14.8889" fill="#A3A3A3"/>
  <rect x="112.167" y="223.333" width="44.6667" height="14.8889" fill="#A3A3A3"/>
  <rect x="82.3892" y="44.666" width="37.2222" height="14.8889" fill="#A3A3A3"/>
  <rect x="82.3892" y="208.443" width="37.2222" height="14.8889" fill="#A3A3A3"/>
  <rect x="52.6113" y="59.5547" width="29.7778" height="14.8889" fill="#A3A3A3"/>
  <rect x="52.6113" y="193.555" width="29.7778" height="14.8889" fill="#A3A3A3"/>
  <rect x="45.1665" y="74.4434" width="14.8889" height="29.7778" fill="#A3A3A3"/>
  <rect x="45.1665" y="163.777" width="14.8889" height="29.7778" fill="#A3A3A3"/>
  <rect x="30.2778" y="104.222" width="14.8889" height="59.5556" fill="#A3A3A3"/>
  <rect width="37.2222" height="14.8889" transform="matrix(-1 0 0 1 186.611 44.666)" fill="#A3A3A3"/>
  <rect width="37.2222" height="14.8889" transform="matrix(-1 0 0 1 186.611 208.443)" fill="#A3A3A3"/>
  <rect width="29.7778" height="14.8889" transform="matrix(-1 0 0 1 216.389 59.5547)" fill="#A3A3A3"/>
  <rect width="29.7778" height="14.8889" transform="matrix(-1 0 0 1 216.389 193.555)" fill="#A3A3A3"/>
  <rect width="14.8889" height="29.7778" transform="matrix(-1 0 0 1 223.833 74.4434)" fill="#A3A3A3"/>
  <rect width="14.8889" height="29.7778" transform="matrix(-1 0 0 1 223.833 163.777)" fill="#A3A3A3"/>
  <rect width="14.8889" height="59.5556" transform="matrix(-1 0 0 1 238.722 104.222)" fill="#A3A3A3"/>
  <rect x="119.611" y="111.667" width="14.8889" height="14.8889" transform="rotate(-180 119.611 111.667)" fill="#A3A3A3"/>
  <rect x="89.8335" y="111.667" width="14.8889" height="14.8889" transform="rotate(-180 89.8335 111.667)" fill="#A3A3A3"/>
  <rect x="104.722" y="119.111" width="14.8889" height="14.8889" transform="rotate(-180 104.722 119.111)" fill="#A3A3A3"/>
  <rect width="14.8889" height="14.8889" transform="matrix(1 0 0 -1 149.389 111.667)" fill="#A3A3A3"/>
  <rect width="14.8889" height="14.8889" transform="matrix(1 0 0 -1 179.167 111.667)" fill="#A3A3A3"/>
  <rect width="14.8889" height="14.8889" transform="matrix(1 0 0 -1 164.278 119.111)" fill="#A3A3A3"/>
  <rect x="179.167" y="178.666" width="14.8889" height="14.8889" transform="rotate(-180 179.167 178.666)" fill="#A3A3A3"/>
  <rect x="119.611" y="178.666" width="14.8889" height="14.8889" transform="rotate(-180 119.611 178.666)" fill="#A3A3A3"/>
  <rect x="164.278" y="171.222" width="14.8889" height="14.8889" transform="rotate(-180 164.278 171.222)" fill="#A3A3A3"/>
  <rect x="149.389" y="163.777" width="14.8889" height="14.8889" transform="rotate(-180 149.389 163.777)" fill="#A3A3A3"/>
  <rect x="134.5" y="171.222" width="14.8889" height="14.8889" transform="rotate(-180 134.5 171.222)" fill="#A3A3A3"/>
  </svg>
  