<svg width="24" height="24" viewBox="0 0 24 24" fill="none" xmlns="http://www.w3.org/2000/svg">
  <rect x="5.3335" y="18.6665" width="1.33333" height="1.33333" fill="white"/>
  <rect x="5.3335" y="8.6665" width="1.33333" height="1.33333" fill="white"/>
  <rect x="6.6665" y="7.3335" width="2" height="1.33333" fill="white"/>
  <rect x="15.3335" y="7.3335" width="2" height="1.33333" fill="white"/>
  <rect x="17.3335" y="8.6665" width="1.33333" height="1.33333" fill="white"/>
  <rect x="17.3335" y="18.6665" width="1.33333" height="1.33333" fill="white"/>
  <rect x="4" y="10" width="1.33333" height="8.66667" fill="white"/>
  <rect x="18.6665" y="10" width="1.33333" height="8.66667" fill="white"/>
  <rect x="17.3335" y="20" width="1.33333" height="10.6667" transform="rotate(90 17.3335 20)" fill="white"/>
  <rect x="10" y="6" width="4" height="6.66667" fill="white"/>
  <rect x="8" y="5.3335" width="8" height="0.666667" fill="white"/>
  <rect x="8.6665" y="4.6665" width="6.66667" height="0.666667" fill="white"/>
  <rect x="9.3335" y="4" width="5.33333" height="0.666667" fill="white"/>
  <rect x="10" y="3.3335" width="4" height="0.666667" fill="white"/>
  <rect x="10.6665" y="2.6665" width="2.66667" height="0.666667" fill="white"/>
  <rect x="11.3335" y="2" width="1.33333" height="0.666667" fill="white"/>
  </svg>
  