<svg width="268" height="268" viewBox="0 0 268 268" fill="none" xmlns="http://www.w3.org/2000/svg">
  <rect x="111.667" y="29.7778" width="44.6667" height="14.8889" fill="#4ADE80"/>
  <rect x="111.667" y="223.333" width="44.6667" height="14.8889" fill="#4ADE80"/>
  <rect x="81.8887" y="44.6665" width="37.2222" height="14.8889" fill="#4ADE80"/>
  <rect x="81.8887" y="208.444" width="37.2222" height="14.8889" fill="#4ADE80"/>
  <rect x="52.1113" y="59.5557" width="29.7778" height="14.8889" fill="#4ADE80"/>
  <rect x="52.1113" y="193.556" width="29.7778" height="14.8889" fill="#4ADE80"/>
  <rect x="44.6665" y="74.4443" width="14.8889" height="29.7778" fill="#4ADE80"/>
  <rect x="44.6665" y="163.778" width="14.8889" height="29.7778" fill="#4ADE80"/>
  <rect x="29.7778" y="104.222" width="14.8889" height="59.5556" fill="#4ADE80"/>
  <rect width="37.2222" height="14.8889" transform="matrix(-1 0 0 1 186.111 44.6665)" fill="#4ADE80"/>
  <rect width="37.2222" height="14.8889" transform="matrix(-1 0 0 1 186.111 208.444)" fill="#4ADE80"/>
  <rect width="29.7778" height="14.8889" transform="matrix(-1 0 0 1 215.889 59.5557)" fill="#4ADE80"/>
  <rect width="29.7778" height="14.8889" transform="matrix(-1 0 0 1 215.889 193.556)" fill="#4ADE80"/>
  <rect width="14.8889" height="29.7778" transform="matrix(-1 0 0 1 223.333 74.4443)" fill="#4ADE80"/>
  <rect width="14.8889" height="29.7778" transform="matrix(-1 0 0 1 223.333 163.778)" fill="#4ADE80"/>
  <rect width="14.8889" height="59.5556" transform="matrix(-1 0 0 1 238.222 104.222)" fill="#4ADE80"/>
  <rect x="67" y="96.7778" width="14.8889" height="14.8889" fill="#4ADE80"/>
  <rect x="81.8887" y="89.3335" width="14.8889" height="14.8889" fill="#4ADE80"/>
  <rect x="96.7778" y="81.8887" width="14.8889" height="14.8889" fill="#4ADE80"/>
  <rect width="14.8889" height="14.8889" transform="matrix(-1 0 0 1 201 104.222)" fill="#4ADE80"/>
  <rect width="14.8889" height="14.8889" transform="matrix(-1 0 0 1 186.111 96.7778)" fill="#4ADE80"/>
  <rect width="14.8889" height="14.8889" transform="matrix(-1 0 0 1 171.222 89.3335)" fill="#4ADE80"/>
  <rect x="74.4443" y="119.111" width="29.7778" height="29.7778" fill="#4ADE80"/>
  <rect x="148.889" y="126.556" width="29.7778" height="29.7778" fill="#4ADE80"/>
  <rect x="104.222" y="171.222" width="14.8889" height="14.8889" fill="#4ADE80"/>
  <rect x="119.111" y="178.667" width="14.8889" height="14.8889" fill="#4ADE80"/>
  <rect x="134" y="186.111" width="14.8889" height="14.8889" fill="#4ADE80"/>
  <rect x="148.889" y="178.667" width="14.8889" height="14.8889" fill="#4ADE80"/>
  <rect x="148.889" y="178.667" width="14.8889" height="14.8889" fill="#4ADE80"/>
  </svg>
  