<svg width="268" height="268" viewBox="0 0 268 268" fill="none" xmlns="http://www.w3.org/2000/svg">
  <rect x="37.2222" y="104.222" width="14.8889" height="89.3333" fill="#EC4899"/>
  <rect x="81.8887" y="104.222" width="14.8889" height="89.3333" fill="#EC4899"/>
  <rect x="223.333" y="104.222" width="14.8889" height="59.5556" fill="#EC4899"/>
  <rect x="208.444" y="163.778" width="14.8889" height="52.1111" fill="#EC4899"/>
  <rect x="52.1113" y="89.3335" width="29.7778" height="14.8889" fill="#EC4899"/>
  <rect x="96.7778" y="89.3335" width="14.8889" height="14.8889" fill="#EC4899"/>
  <rect x="96.7778" y="193.556" width="14.8889" height="22.3333" fill="#EC4899"/>
  <rect x="156.333" y="89.3335" width="67" height="14.8889" fill="#EC4899"/>
  <rect x="111.667" y="215.889" width="96.7778" height="14.8889" fill="#EC4899"/>
  <rect x="126.556" y="29.7778" width="14.8889" height="14.8889" fill="#EC4899"/>
  <rect x="111.667" y="44.6665" width="14.8889" height="44.6667" fill="#EC4899"/>
  <rect x="141.444" y="44.6665" width="14.8889" height="44.6667" fill="#EC4899"/>
  <rect x="52.1113" y="193.556" width="29.7778" height="14.8889" fill="#EC4899"/>
  <rect x="192.222" y="40.2222" width="4.88889" height="29.3333" fill="#EC4899"/>
  <rect x="206.889" y="40.2222" width="4.88889" height="29.3333" fill="#EC4899"/>
  <rect x="253.333" y="40.2222" width="4.88889" height="19.5556" fill="#EC4899"/>
  <rect x="248.444" y="59.7778" width="4.88889" height="17.1111" fill="#EC4899"/>
  <rect x="197.111" y="35.3335" width="9.77778" height="4.88889" fill="#EC4899"/>
  <rect x="211.778" y="35.3335" width="4.88889" height="4.88889" fill="#EC4899"/>
  <rect x="211.778" y="69.5557" width="4.88889" height="7.33333" fill="#EC4899"/>
  <rect x="231.333" y="35.3335" width="22" height="4.88889" fill="#EC4899"/>
  <rect x="216.667" y="76.8887" width="31.7778" height="4.88889" fill="#EC4899"/>
  <rect x="221.556" y="15.7778" width="4.88889" height="4.88889" fill="#EC4899"/>
  <rect x="216.667" y="20.6665" width="4.88889" height="14.6667" fill="#EC4899"/>
  <rect x="226.444" y="20.6665" width="4.88889" height="14.6667" fill="#EC4899"/>
  <rect x="197.111" y="69.5557" width="9.77778" height="4.88889" fill="#EC4899"/>
  </svg>
  