<svg width="512" height="512" viewBox="0 0 512 512" fill="none" xmlns="http://www.w3.org/2000/svg">
  <path fill-rule="evenodd" clip-rule="evenodd"
    d="M486.678 290.358L256.311 75.0952L25.9434 290.358L154.097 412.048H358.525L486.678 290.358Z"
    fill="black" />
  <rect x="242.057" y="75.0952" width="27.8857" height="11.619" fill="#DEDEDE" />
  <rect x="229.276" y="86.7144" width="18.5905" height="11.619" fill="#DEDEDE" />
  <rect x="216.495" y="98.333" width="18.5905" height="11.619" fill="#DEDEDE" />
  <rect x="203.714" y="109.953" width="18.5905" height="11.619" fill="#DEDEDE" />
  <rect x="190.933" y="121.572" width="18.5905" height="11.619" fill="#DEDEDE" />
  <rect x="178.152" y="133.19" width="18.5905" height="11.619" fill="#DEDEDE" />
  <rect x="165.371" y="144.81" width="18.5905" height="11.619" fill="#DEDEDE" />
  <rect x="152.59" y="156.428" width="18.5905" height="11.619" fill="#DEDEDE" />
  <rect x="139.81" y="168.047" width="18.5905" height="11.619" fill="#DEDEDE" />
  <rect x="127.029" y="179.667" width="18.5905" height="11.619" fill="#DEDEDE" />
  <rect x="114.248" y="191.286" width="18.5905" height="11.619" fill="#DEDEDE" />
  <rect x="101.467" y="202.905" width="18.5905" height="11.619" fill="#DEDEDE" />
  <rect x="88.6857" y="214.524" width="18.5905" height="11.619" fill="#DEDEDE" />
  <rect x="75.9048" y="226.143" width="18.5905" height="11.619" fill="#DEDEDE" />
  <rect x="63.1238" y="237.762" width="18.5905" height="11.619" fill="#DEDEDE" />
  <rect x="50.3428" y="249.381" width="18.5905" height="11.619" fill="#DEDEDE" />
  <rect x="37.5619" y="261" width="18.5905" height="11.619" fill="#DEDEDE" />
  <rect x="24.7809" y="272.619" width="18.5905" height="11.619" fill="#DEDEDE" />
  <rect x="139.81" y="400.428" width="18.5905" height="11.619" fill="#DEDEDE" />
  <rect x="127.029" y="388.81" width="18.5905" height="11.619" fill="#DEDEDE" />
  <rect x="114.248" y="377.19" width="18.5905" height="11.619" fill="#DEDEDE" />
  <rect x="101.467" y="365.572" width="18.5905" height="11.619" fill="#DEDEDE" />
  <rect x="88.6857" y="353.953" width="18.5905" height="11.619" fill="#DEDEDE" />
  <rect x="75.9048" y="342.333" width="18.5905" height="11.619" fill="#DEDEDE" />
  <rect x="63.1238" y="330.714" width="18.5905" height="11.619" fill="#DEDEDE" />
  <rect x="50.3428" y="319.095" width="18.5905" height="11.619" fill="#DEDEDE" />
  <rect x="37.5619" y="307.476" width="18.5905" height="11.619" fill="#DEDEDE" />
  <rect x="24.7809" y="295.857" width="18.5905" height="11.619" fill="#DEDEDE" />
  <rect width="18.5905" height="11.619" transform="matrix(-1 0 0 1 372.19 400.428)" fill="#DEDEDE" />
  <rect width="18.5905" height="11.619" transform="matrix(-1 0 0 1 384.971 388.81)" fill="#DEDEDE" />
  <rect width="18.5905" height="11.619" transform="matrix(-1 0 0 1 397.752 377.19)" fill="#DEDEDE" />
  <rect width="18.5905" height="11.619" transform="matrix(-1 0 0 1 410.533 365.572)" fill="#DEDEDE" />
  <rect width="18.5905" height="11.619" transform="matrix(-1 0 0 1 423.314 353.953)" fill="#DEDEDE" />
  <rect width="18.5905" height="11.619" transform="matrix(-1 0 0 1 436.095 342.333)" fill="#DEDEDE" />
  <rect width="18.5905" height="11.619" transform="matrix(-1 0 0 1 448.876 330.714)" fill="#DEDEDE" />
  <rect width="18.5905" height="11.619" transform="matrix(-1 0 0 1 461.657 319.095)" fill="#DEDEDE" />
  <rect width="18.5905" height="11.619" transform="matrix(-1 0 0 1 474.438 307.476)" fill="#DEDEDE" />
  <rect width="18.5905" height="11.619" transform="matrix(-1 0 0 1 487.219 295.857)" fill="#DEDEDE" />
  <rect x="12" y="284.238" width="18.5905" height="11.619" fill="#DEDEDE" />
  <rect width="27.8857" height="11.619"
    transform="matrix(-1 -8.74228e-08 -8.74228e-08 1 269.943 75.0952)" fill="#DEDEDE" />
  <rect width="18.5905" height="11.619"
    transform="matrix(-1 -8.74228e-08 -8.74228e-08 1 282.724 86.7144)" fill="#DEDEDE" />
  <rect width="18.5905" height="11.619"
    transform="matrix(-1 -8.74228e-08 -8.74228e-08 1 295.505 98.333)" fill="#DEDEDE" />
  <rect width="18.5905" height="11.619"
    transform="matrix(-1 -8.74228e-08 -8.74228e-08 1 308.286 109.953)" fill="#DEDEDE" />
  <rect width="18.5905" height="11.619"
    transform="matrix(-1 -8.74228e-08 -8.74228e-08 1 321.067 121.572)" fill="#DEDEDE" />
  <rect width="18.5905" height="11.619"
    transform="matrix(-1 -8.74228e-08 -8.74228e-08 1 333.848 133.19)" fill="#DEDEDE" />
  <rect width="18.5905" height="11.619"
    transform="matrix(-1 -8.74228e-08 -8.74228e-08 1 346.629 144.81)" fill="#DEDEDE" />
  <rect width="18.5905" height="11.619"
    transform="matrix(-1 -8.74228e-08 -8.74228e-08 1 359.41 156.428)" fill="#DEDEDE" />
  <rect width="18.5905" height="11.619"
    transform="matrix(-1 -8.74228e-08 -8.74228e-08 1 372.19 168.047)" fill="#DEDEDE" />
  <rect width="18.5905" height="11.619"
    transform="matrix(-1 -8.74228e-08 -8.74228e-08 1 384.971 179.667)" fill="#DEDEDE" />
  <rect width="18.5905" height="11.619"
    transform="matrix(-1 -8.74228e-08 -8.74228e-08 1 397.752 191.286)" fill="#DEDEDE" />
  <rect width="18.5905" height="11.619"
    transform="matrix(-1 -8.74228e-08 -8.74228e-08 1 410.533 202.905)" fill="#DEDEDE" />
  <rect width="18.5905" height="11.619"
    transform="matrix(-1 -8.74228e-08 -8.74228e-08 1 423.314 214.524)" fill="#DEDEDE" />
  <rect width="18.5905" height="11.619"
    transform="matrix(-1 -8.74228e-08 -8.74228e-08 1 436.095 226.143)" fill="#DEDEDE" />
  <rect width="18.5905" height="11.619"
    transform="matrix(-1 -8.74228e-08 -8.74228e-08 1 448.876 237.762)" fill="#DEDEDE" />
  <rect width="18.5905" height="11.619"
    transform="matrix(-1 -8.74228e-08 -8.74228e-08 1 461.657 249.381)" fill="#DEDEDE" />
  <rect width="18.5905" height="11.619"
    transform="matrix(-1 -8.74228e-08 -8.74228e-08 1 474.438 261)" fill="#DEDEDE" />
  <rect width="18.5905" height="11.619"
    transform="matrix(-1 -8.74228e-08 -8.74228e-08 1 487.219 272.619)" fill="#DEDEDE" />
  <rect width="18.5905" height="11.619"
    transform="matrix(-1 -8.74228e-08 -8.74228e-08 1 500 284.238)" fill="#DEDEDE" />
  <path fill-rule="evenodd" clip-rule="evenodd"
    d="M251.352 125.057H260.648V129.705H261.809V134.352H250.19V129.705H251.352V125.057ZM221.875 162.238V152.943H290.125V162.238H294.391V171.533H217.609V162.238H221.875ZM298.656 180.829V171.534H213.344V180.829H210.145V190.124H301.855V180.829H298.656ZM306.121 199.419V190.124H205.879V199.419H306.121ZM201.613 208.714V199.419H310.387V208.714H313.586V218.01H198.414V208.714H201.613ZM195.215 227.305V218.01H316.785V227.305H319.984V236.6H192.016V227.305H195.215ZM187.75 245.895V236.6H324.25V245.895H327.449V255.191H184.551V245.895H187.75ZM180.285 264.486V255.191H331.715V264.486H333.848V273.781H266.457V278.428H245.543V273.781H178.152V264.486H180.285ZM222.305 286.562H247.867V283.076H246.705V278.429H265.295V283.076H264.133V286.562H289.695V295.857H261.809V295.857H301.314V305.152H325.714V314.448H186.286V305.152H210.686V295.857H250.19V295.857H222.305V286.562ZM130.514 346.981V333.038H381.486V346.981H130.514ZM372.19 356.276V346.981H139.81V356.276H149.105V365.571H362.895V356.276H372.19ZM362.895 323.743H344.305V314.448H167.695V323.743H149.105V333.038H362.895V323.743ZM353.6 365.572V374.867H344.305V384.162H167.695V374.867H158.4V365.572H353.6ZM335.01 393.457V384.162H176.99V393.457H186.286V402.752H325.714V393.457H335.01ZM316.419 412.048V402.752H195.581V412.048H316.419ZM249.029 134.353H262.971V139H264.133V143.648H265.295V148.295H246.705V143.648H247.867V139H249.029V134.353ZM266.457 148.296H245.543V152.943H266.457V148.296Z"
    fill="white" />
  <circle cx="178.152" cy="412.048" r="19.7524" fill="#DEDEDE" />
  <ellipse cx="217.076" cy="412.048" rx="19.1714" ry="19.7524" fill="#DEDEDE" />
  <circle cx="256" cy="412.048" r="19.7524" fill="#DEDEDE" />
  <ellipse cx="294.924" cy="412.048" rx="19.1714" ry="19.7524" fill="#DEDEDE" />
  <circle cx="333.848" cy="412.048" r="19.7524" fill="#DEDEDE" />
  <rect x="110.762" y="412.047" width="290.476" height="11.619" fill="#DEDEDE" />
  <rect x="132.838" y="423.667" width="246.324" height="11.619" fill="#DEDEDE" />
  <rect x="146.781" y="435.286" width="218.438" height="11.619" fill="#DEDEDE" />
</svg>
  