<svg
  width="220"
  height="169"
  viewBox="0 0 220 169"
  fill="none"
  xmlns="http://www.w3.org/2000/svg"
>
  <path
    fill-rule="evenodd"
    clip-rule="evenodd"
    d="M213.92 97.8429L110.14 0.867188L6.35938 97.8429L64.0924 152.664H156.187L213.92 97.8429Z"
    fill="black"
  />
  <rect
    x="103.719"
    y="0.867188"
    width="12.5625"
    height="5.23438"
    fill="#DEDEDE"
  />
  <rect x="97.9609" y="6.10156" width="8.375" height="5.23438" fill="#DEDEDE" />
  <rect x="92.2031" y="11.3359" width="8.375" height="5.23438" fill="#DEDEDE" />
  <rect x="86.4453" y="16.5703" width="8.375" height="5.23438" fill="#DEDEDE" />
  <rect x="80.6875" y="21.8047" width="8.375" height="5.23438" fill="#DEDEDE" />
  <rect x="74.9297" y="27.0391" width="8.375" height="5.23438" fill="#DEDEDE" />
  <rect x="69.1719" y="32.2734" width="8.375" height="5.23438" fill="#DEDEDE" />
  <rect x="63.4141" y="37.5078" width="8.375" height="5.23438" fill="#DEDEDE" />
  <rect x="57.6562" y="42.7422" width="8.375" height="5.23438" fill="#DEDEDE" />
  <rect x="51.8984" y="47.9766" width="8.375" height="5.23438" fill="#DEDEDE" />
  <rect x="46.1406" y="53.2109" width="8.375" height="5.23438" fill="#DEDEDE" />
  <rect x="40.3828" y="58.4453" width="8.375" height="5.23438" fill="#DEDEDE" />
  <rect x="34.625" y="63.6797" width="8.375" height="5.23438" fill="#DEDEDE" />
  <rect x="28.8672" y="68.9141" width="8.375" height="5.23438" fill="#DEDEDE" />
  <rect x="23.1094" y="74.1484" width="8.375" height="5.23438" fill="#DEDEDE" />
  <rect x="17.3516" y="79.3828" width="8.375" height="5.23438" fill="#DEDEDE" />
  <rect x="11.5938" y="84.6172" width="8.375" height="5.23438" fill="#DEDEDE" />
  <rect x="5.83594" y="89.8516" width="8.375" height="5.23438" fill="#DEDEDE" />
  <rect x="57.6562" y="147.43" width="8.375" height="5.23438" fill="#DEDEDE" />
  <rect x="51.8984" y="142.195" width="8.375" height="5.23438" fill="#DEDEDE" />
  <rect x="46.1406" y="136.961" width="8.375" height="5.23438" fill="#DEDEDE" />
  <rect x="40.3828" y="131.727" width="8.375" height="5.23438" fill="#DEDEDE" />
  <rect x="34.625" y="126.492" width="8.375" height="5.23438" fill="#DEDEDE" />
  <rect x="28.8672" y="121.258" width="8.375" height="5.23438" fill="#DEDEDE" />
  <rect x="23.1094" y="116.023" width="8.375" height="5.23438" fill="#DEDEDE" />
  <rect x="17.3516" y="110.789" width="8.375" height="5.23438" fill="#DEDEDE" />
  <rect x="11.5938" y="105.555" width="8.375" height="5.23438" fill="#DEDEDE" />
  <rect x="5.83594" y="100.32" width="8.375" height="5.23438" fill="#DEDEDE" />
  <rect
    width="8.375"
    height="5.23438"
    transform="matrix(-1 0 0 1 162.344 147.43)"
    fill="#DEDEDE"
  />
  <rect
    width="8.375"
    height="5.23438"
    transform="matrix(-1 0 0 1 168.102 142.195)"
    fill="#DEDEDE"
  />
  <rect
    width="8.375"
    height="5.23438"
    transform="matrix(-1 0 0 1 173.859 136.961)"
    fill="#DEDEDE"
  />
  <rect
    width="8.375"
    height="5.23438"
    transform="matrix(-1 0 0 1 179.617 131.727)"
    fill="#DEDEDE"
  />
  <rect
    width="8.375"
    height="5.23438"
    transform="matrix(-1 0 0 1 185.375 126.492)"
    fill="#DEDEDE"
  />
  <rect
    width="8.375"
    height="5.23438"
    transform="matrix(-1 0 0 1 191.133 121.258)"
    fill="#DEDEDE"
  />
  <rect
    width="8.375"
    height="5.23438"
    transform="matrix(-1 0 0 1 196.891 116.023)"
    fill="#DEDEDE"
  />
  <rect
    width="8.375"
    height="5.23438"
    transform="matrix(-1 0 0 1 202.648 110.789)"
    fill="#DEDEDE"
  />
  <rect
    width="8.375"
    height="5.23438"
    transform="matrix(-1 0 0 1 208.406 105.555)"
    fill="#DEDEDE"
  />
  <rect
    width="8.375"
    height="5.23438"
    transform="matrix(-1 0 0 1 214.164 100.32)"
    fill="#DEDEDE"
  />
  <rect
    x="0.078125"
    y="95.0859"
    width="8.375"
    height="5.23438"
    fill="#DEDEDE"
  />
  <rect
    width="12.5625"
    height="5.23438"
    transform="matrix(-1 -8.74228e-08 -8.74228e-08 1 116.281 0.867188)"
    fill="#DEDEDE"
  />
  <rect
    width="8.375"
    height="5.23438"
    transform="matrix(-1 -8.74228e-08 -8.74228e-08 1 122.039 6.10156)"
    fill="#DEDEDE"
  />
  <rect
    width="8.375"
    height="5.23438"
    transform="matrix(-1 -8.74228e-08 -8.74228e-08 1 127.797 11.3359)"
    fill="#DEDEDE"
  />
  <rect
    width="8.375"
    height="5.23438"
    transform="matrix(-1 -8.74228e-08 -8.74228e-08 1 133.555 16.5703)"
    fill="#DEDEDE"
  />
  <rect
    width="8.375"
    height="5.23438"
    transform="matrix(-1 -8.74228e-08 -8.74228e-08 1 139.312 21.8047)"
    fill="#DEDEDE"
  />
  <rect
    width="8.375"
    height="5.23438"
    transform="matrix(-1 -8.74228e-08 -8.74228e-08 1 145.07 27.0391)"
    fill="#DEDEDE"
  />
  <rect
    width="8.375"
    height="5.23438"
    transform="matrix(-1 -8.74228e-08 -8.74228e-08 1 150.828 32.2734)"
    fill="#DEDEDE"
  />
  <rect
    width="8.375"
    height="5.23438"
    transform="matrix(-1 -8.74228e-08 -8.74228e-08 1 156.586 37.5078)"
    fill="#DEDEDE"
  />
  <rect
    width="8.375"
    height="5.23438"
    transform="matrix(-1 -8.74228e-08 -8.74228e-08 1 162.344 42.7422)"
    fill="#DEDEDE"
  />
  <rect
    width="8.375"
    height="5.23438"
    transform="matrix(-1 -8.74228e-08 -8.74228e-08 1 168.102 47.9766)"
    fill="#DEDEDE"
  />
  <rect
    width="8.375"
    height="5.23438"
    transform="matrix(-1 -8.74228e-08 -8.74228e-08 1 173.859 53.2109)"
    fill="#DEDEDE"
  />
  <rect
    width="8.375"
    height="5.23438"
    transform="matrix(-1 -8.74228e-08 -8.74228e-08 1 179.617 58.4453)"
    fill="#DEDEDE"
  />
  <rect
    width="8.375"
    height="5.23438"
    transform="matrix(-1 -8.74228e-08 -8.74228e-08 1 185.375 63.6797)"
    fill="#DEDEDE"
  />
  <rect
    width="8.375"
    height="5.23438"
    transform="matrix(-1 -8.74228e-08 -8.74228e-08 1 191.133 68.9141)"
    fill="#DEDEDE"
  />
  <rect
    width="8.375"
    height="5.23438"
    transform="matrix(-1 -8.74228e-08 -8.74228e-08 1 196.891 74.1484)"
    fill="#DEDEDE"
  />
  <rect
    width="8.375"
    height="5.23438"
    transform="matrix(-1 -8.74228e-08 -8.74228e-08 1 202.648 79.3828)"
    fill="#DEDEDE"
  />
  <rect
    width="8.375"
    height="5.23438"
    transform="matrix(-1 -8.74228e-08 -8.74228e-08 1 208.406 84.6172)"
    fill="#DEDEDE"
  />
  <rect
    width="8.375"
    height="5.23438"
    transform="matrix(-1 -8.74228e-08 -8.74228e-08 1 214.164 89.8516)"
    fill="#DEDEDE"
  />
  <rect
    width="8.375"
    height="5.23438"
    transform="matrix(-1 -8.74228e-08 -8.74228e-08 1 219.922 95.0859)"
    fill="#DEDEDE"
  />
  <path
    fill-rule="evenodd"
    clip-rule="evenodd"
    d="M107.906 23.375H112.094V25.4688H112.617V27.5625H113.141V29.6562H113.664V31.75H114.188V33.8438H114.711V35.9375H125.373V40.125H127.295V44.3125H129.217V48.5H130.658V52.6875H132.58V56.875H134.501V61.0625H135.942V65.25H137.383V69.4375H138.825V73.625H140.747V77.8125H142.188V82H144.11V86.1875H145.07V90.375H114.711V92.4688H114.188V94.5625H113.664V96.1328H125.18V100.32H130.414V104.508H141.406V108.695H149.781V112.883H158.156V117.07H166.531V123.352H162.344V127.539H158.156V131.727H153.969V135.914H149.781V140.102H145.594V144.289H141.406V148.477H137.219V152.664H82.7812V148.477H78.5938V144.289H74.4062V140.102H70.2188V135.914H66.0312V131.727H61.8438V127.539H57.6562V123.352H53.4688V117.07H61.8438V112.883H70.2188V108.695H78.5938V104.508H89.5859V100.32H94.8203V96.1328H106.336V94.5625H105.812V92.4688H105.289V90.375H74.9297V86.1875H75.8907V82H77.8122V77.8125H79.2537V73.625H81.1752V69.4375H82.6161V65.25H84.0576V61.0625H85.4986V56.875H87.4206V52.6875H89.3421V48.5H90.7836V44.3125H92.7051V40.125H94.6266V35.9375H105.289V33.8438H105.812V31.75H106.336V29.6562H106.859V27.5625H107.383V25.4688H107.906V23.375Z"
    fill="white"
  />
  <circle cx="74.9297" cy="152.664" r="8.89844" fill="#DEDEDE" />
  <ellipse cx="92.4648" cy="152.664" rx="8.63672" ry="8.89844" fill="#DEDEDE" />
  <circle cx="110" cy="152.664" r="8.89844" fill="#DEDEDE" />
  <ellipse cx="127.535" cy="152.664" rx="8.63672" ry="8.89844" fill="#DEDEDE" />
  <circle cx="145.07" cy="152.664" r="8.89844" fill="#DEDEDE" />
  <rect
    x="44.5703"
    y="152.664"
    width="130.859"
    height="5.23438"
    fill="#DEDEDE"
  />
  <rect
    x="54.5156"
    y="157.898"
    width="110.969"
    height="5.23438"
    fill="#DEDEDE"
  />
  <rect
    x="60.7969"
    y="163.133"
    width="98.4062"
    height="5.23438"
    fill="#DEDEDE"
  />
</svg>
