<svg width="1280" height="832" viewBox="0 0 1280 832" fill="none" xmlns="http://www.w3.org/2000/svg" xmlns:xlink="http://www.w3.org/1999/xlink">
  <g clip-path="url(#clip0_86_181)">
  <mask id="path-1-outside-1_86_181" maskUnits="userSpaceOnUse" x="53.2927" y="-24.6152" width="1173" height="1003" fill="black">
  <rect fill="white" x="53.2927" y="-24.6152" width="1173" height="1003"/>
  <path fill-rule="evenodd" clip-rule="evenodd" d="M1150.54 -10.6152H128.874V56.6118H67.2927V897.169H129.079V964.177H1212.71L1150.54 964.177V896.722H1212.71V56.8398H1150.54V-10.6152Z"/>
  </mask>
  <path fill-rule="evenodd" clip-rule="evenodd" d="M1150.54 -10.6152H128.874V56.6118H67.2927V897.169H129.079V964.177H1212.71L1150.54 964.177V896.722H1212.71V56.8398H1150.54V-10.6152Z" fill="white"/>
  <path d="M128.874 -10.6152V-23.8417H115.648V-10.6152H128.874ZM1150.54 -10.6152H1163.77V-23.8417H1150.54V-10.6152ZM128.874 56.6118V69.8383H142.101V56.6118H128.874ZM67.2927 56.6118V43.3853H54.0662V56.6118H67.2927ZM67.2927 897.169H54.0662V910.395H67.2927V897.169ZM129.079 897.169H142.306V883.942H129.079V897.169ZM129.079 964.177H115.853V977.404H129.079V964.177ZM1150.54 964.177H1137.32V977.404L1150.54 977.404V964.177ZM1150.54 896.722V883.496H1137.32V896.722H1150.54ZM1212.71 896.722V909.949H1225.93V896.722H1212.71ZM1212.71 56.8398H1225.93V43.6133H1212.71V56.8398ZM1150.54 56.8398H1137.32V70.0663H1150.54V56.8398ZM128.874 2.61126H1150.54V-23.8417H128.874V2.61126ZM142.101 56.6118V-10.6152H115.648V56.6118H142.101ZM67.2927 69.8383H128.874V43.3853H67.2927V69.8383ZM80.5192 897.169V56.6118H54.0662V897.169H80.5192ZM129.079 883.942H67.2927V910.395H129.079V883.942ZM142.306 964.177V897.169H115.853V964.177H142.306ZM1212.71 950.951H129.079V977.404H1212.71V950.951ZM1212.71 950.951L1150.54 950.951V977.404L1212.71 977.404V950.951ZM1163.77 964.177V896.722H1137.32V964.177H1163.77ZM1150.54 909.949H1212.71V883.496H1150.54V909.949ZM1199.48 56.8398V896.722H1225.93V56.8398H1199.48ZM1150.54 70.0663H1212.71V43.6133H1150.54V70.0663ZM1137.32 -10.6152V56.8398H1163.77V-10.6152H1137.32Z" fill="#717171" mask="url(#path-1-outside-1_86_181)"/>
  <mask id="path-3-outside-2_86_181" maskUnits="userSpaceOnUse" x="160.427" y="64.0879" width="959" height="713" fill="black">
  <rect fill="white" x="160.427" y="64.0879" width="959" height="713"/>
  <path fill-rule="evenodd" clip-rule="evenodd" d="M1056 78.0879H224.489V125.338H174.427V715.932H224.654V763.22L1055.51 763.22V715.97H1105.57L1105.57 125H1056V78.0879Z"/>
  </mask>
  <path fill-rule="evenodd" clip-rule="evenodd" d="M1056 78.0879H224.489V125.338H174.427V715.932H224.654V763.22L1055.51 763.22V715.97H1105.57L1105.57 125H1056V78.0879Z" fill="#2D2D2D"/>
  <path d="M224.489 78.0879V64.8614H211.263V78.0879H224.489ZM1056 78.0879H1069.23V64.8614H1056V78.0879ZM224.489 125.338V138.565H237.716V125.338H224.489ZM174.427 125.338V112.112H161.201V125.338H174.427ZM174.427 715.932H161.201V729.158H174.427V715.932ZM224.654 715.932H237.88V702.705H224.654V715.932ZM224.654 763.22H211.427V776.447H224.654V763.22ZM1055.51 763.22V776.447H1068.74V763.22H1055.51ZM1055.51 715.97V702.743H1042.28V715.97H1055.51ZM1105.57 715.97V729.196H1118.8V715.97H1105.57ZM1105.57 125L1118.8 125V111.774H1105.57V125ZM1056 125H1042.77V138.226H1056V125ZM224.489 91.3144H1056V64.8614H224.489V91.3144ZM237.716 125.338V78.0879H211.263V125.338H237.716ZM174.427 138.565H224.489V112.112H174.427V138.565ZM187.654 715.932V125.338H161.201V715.932H187.654ZM224.654 702.705H174.427V729.158H224.654V702.705ZM237.88 763.22V715.932H211.427V763.22H237.88ZM1055.51 749.994L224.654 749.994V776.447L1055.51 776.447V749.994ZM1068.74 763.22V715.97H1042.28V763.22H1068.74ZM1055.51 729.196H1105.57V702.743H1055.51V729.196ZM1092.35 125L1092.35 715.97H1118.8L1118.8 125L1092.35 125ZM1056 138.226H1105.57V111.774H1056V138.226ZM1042.77 78.0879V125H1069.23V78.0879H1042.77Z" fill="#717171" mask="url(#path-3-outside-2_86_181)"/>
  <g opacity="0.2">
  <line x1="174.633" y1="162.839" x2="1105.37" y2="162.839" stroke="white" stroke-width="0.893218"/>
  <line x1="174.634" y1="138.839" x2="1105.37" y2="138.839" stroke="white" stroke-width="0.893218"/>
  <line x1="174.634" y1="114.839" x2="1105.37" y2="114.839" stroke="white" stroke-width="0.893218"/>
  <line x1="174.634" y1="90.839" x2="1105.37" y2="90.839" stroke="white" stroke-width="0.893218"/>
  <line x1="174.634" y1="66.839" x2="1105.37" y2="66.839" stroke="white" stroke-width="0.893218"/>
  <line x1="174.633" y1="186.839" x2="1105.37" y2="186.839" stroke="white" stroke-width="0.893218"/>
  <line x1="174.633" y1="210.839" x2="1105.37" y2="210.839" stroke="white" stroke-width="0.893218"/>
  <line x1="174.633" y1="234.839" x2="1105.37" y2="234.839" stroke="white" stroke-width="0.893218"/>
  <line x1="174.633" y1="258.839" x2="1105.37" y2="258.839" stroke="white" stroke-width="0.893218"/>
  <line x1="174.633" y1="282.839" x2="1105.37" y2="282.839" stroke="white" stroke-width="0.893218"/>
  <line x1="174.633" y1="306.839" x2="1105.37" y2="306.839" stroke="white" stroke-width="0.893218"/>
  <line x1="174.633" y1="330.839" x2="1105.37" y2="330.839" stroke="white" stroke-width="0.893218"/>
  <line x1="174.633" y1="354.839" x2="1105.37" y2="354.839" stroke="white" stroke-width="0.893218"/>
  <line x1="174.633" y1="378.839" x2="1105.37" y2="378.839" stroke="white" stroke-width="0.893218"/>
  <line x1="174.633" y1="402.839" x2="1105.37" y2="402.839" stroke="white" stroke-width="0.893218"/>
  <line x1="174.633" y1="426.839" x2="1105.37" y2="426.839" stroke="white" stroke-width="0.893218"/>
  <line x1="174.633" y1="450.839" x2="1105.37" y2="450.839" stroke="white" stroke-width="0.893218"/>
  <line x1="174.633" y1="474.839" x2="1105.37" y2="474.839" stroke="white" stroke-width="0.893218"/>
  <line x1="174.633" y1="498.839" x2="1105.37" y2="498.839" stroke="white" stroke-width="0.893218"/>
  <line x1="174.633" y1="522.839" x2="1105.37" y2="522.839" stroke="white" stroke-width="0.893218"/>
  <line x1="174.633" y1="546.839" x2="1105.37" y2="546.839" stroke="white" stroke-width="0.893218"/>
  <line x1="174.633" y1="570.839" x2="1105.37" y2="570.839" stroke="white" stroke-width="0.893218"/>
  <line x1="174.633" y1="594.839" x2="1105.37" y2="594.839" stroke="white" stroke-width="0.893218"/>
  <line x1="174.633" y1="618.839" x2="1105.37" y2="618.839" stroke="white" stroke-width="0.893218"/>
  <line x1="174.633" y1="642.839" x2="1105.37" y2="642.839" stroke="white" stroke-width="0.893218"/>
  <line x1="174.633" y1="666.839" x2="1105.37" y2="666.839" stroke="white" stroke-width="0.893218"/>
  <line x1="174.633" y1="690.839" x2="1105.37" y2="690.839" stroke="white" stroke-width="0.893218"/>
  <line x1="174.633" y1="714.839" x2="1105.37" y2="714.839" stroke="white" stroke-width="0.893218"/>
  <line x1="174.633" y1="738.839" x2="1105.37" y2="738.839" stroke="white" stroke-width="0.893218"/>
  <line x1="174.633" y1="762.839" x2="1105.37" y2="762.839" stroke="white" stroke-width="0.893218"/>
  <line x1="174.633" y1="786.839" x2="1105.37" y2="786.839" stroke="white" stroke-width="0.893218"/>
  <line x1="174.633" y1="810.839" x2="1105.37" y2="810.839" stroke="white" stroke-width="0.893218"/>
  </g>
  </g>
  </svg>
  