<svg width="64" height="64" viewBox="0 0 64 64" fill="none" xmlns="http://www.w3.org/2000/svg">
  <rect x="30.2222" y="7.11133" width="7.11111" height="7.11111" fill="#5EEAD4"/>
  <rect x="30.2222" y="49.7773" width="7.11111" height="7.11111" fill="#5EEAD4"/>
  <rect x="37.3335" y="14.2227" width="7.11111" height="7.11111" fill="#5EEAD4"/>
  <rect x="37.3335" y="42.667" width="7.11111" height="7.11111" fill="#5EEAD4"/>
  <rect x="44.4443" y="21.333" width="7.11111" height="7.11111" fill="#5EEAD4"/>
  <path d="M51.5557 28.4443H58.6668V35.5554H51.5557V28.4443Z" fill="#5EEAD4"/>
  <path d="M37.3335 28.4443H44.4446V35.5554H37.3335V28.4443Z" fill="#5EEAD4"/>
  <path d="M30.2222 28.4443H37.3333V35.5554H30.2222V28.4443Z" fill="#5EEAD4"/>
  <path d="M23.1113 28.4443H30.2224V35.5554H23.1113V28.4443Z" fill="#5EEAD4"/>
  <path d="M16 28.4443H23.1111V35.5554H16V28.4443Z" fill="#5EEAD4"/>
  <path d="M5.3335 28.4443H12.4446V35.5554H5.3335V28.4443Z" fill="#5EEAD4"/>
  <path d="M44.4443 35.5557H51.5554V42.6668H44.4443V35.5557Z" fill="#5EEAD4"/>
  </svg>
  