<svg width="64" height="64" viewBox="0 0 64 64" fill="none" xmlns="http://www.w3.org/2000/svg">
  <rect width="7.11111" height="7.11111" transform="matrix(-1 0 0 1 33.7778 7.11133)" fill="#EC4899"/>
  <rect width="7.11111" height="7.11111" transform="matrix(-1 0 0 1 33.7778 49.7773)" fill="#EC4899"/>
  <rect width="7.11111" height="7.11111" transform="matrix(-1 0 0 1 26.6665 14.2227)" fill="#EC4899"/>
  <rect width="7.11111" height="7.11111" transform="matrix(-1 0 0 1 26.6665 42.667)" fill="#EC4899"/>
  <rect width="7.11111" height="7.11111" transform="matrix(-1 0 0 1 19.5557 21.333)" fill="#EC4899"/>
  <path d="M12.4443 28.4443H5.33322V35.5554H12.4443V28.4443Z" fill="#EC4899"/>
  <path d="M26.6665 28.4443H19.5554V35.5554H26.6665V28.4443Z" fill="#EC4899"/>
  <path d="M33.7778 28.4443H26.6667V35.5554H33.7778V28.4443Z" fill="#EC4899"/>
  <path d="M40.8887 28.4443H33.7776V35.5554H40.8887V28.4443Z" fill="#EC4899"/>
  <path d="M48 28.4443H40.8889V35.5554H48V28.4443Z" fill="#EC4899"/>
  <path d="M58.6665 28.4443H51.5554V35.5554H58.6665V28.4443Z" fill="#EC4899"/>
  <path d="M19.5557 35.5557H12.4446V42.6668H19.5557V35.5557Z" fill="#EC4899"/>
  </svg>
  