<svg width="36" height="36" viewBox="0 0 36 36" fill="none" xmlns="http://www.w3.org/2000/svg">
  <rect x="15" y="4" width="6" height="2" fill="white" />
  <rect x="15" y="30" width="6" height="2" fill="white" />
  <rect x="11" y="6" width="5" height="2" fill="white" />
  <rect x="11" y="28" width="5" height="2" fill="white" />
  <rect x="7" y="8" width="4" height="2" fill="white" />
  <rect x="7" y="26" width="4" height="2" fill="white" />
  <rect x="6" y="10" width="2" height="4" fill="white" />
  <rect x="6" y="22" width="2" height="4" fill="white" />
  <rect x="4" y="14" width="2" height="8" fill="white" />
  <rect width="5" height="2" transform="matrix(-1 0 0 1 25 6)" fill="white" />
  <rect width="5" height="2" transform="matrix(-1 0 0 1 25 28)" fill="white" />
  <rect width="4" height="2" transform="matrix(-1 0 0 1 29 8)" fill="white" />
  <rect width="4" height="2" transform="matrix(-1 0 0 1 29 26)" fill="white" />
  <rect width="2" height="4" transform="matrix(-1 0 0 1 30 10)" fill="white" />
  <rect width="2" height="4" transform="matrix(-1 0 0 1 30 22)" fill="white" />
  <rect width="2" height="8" transform="matrix(-1 0 0 1 32 14)" fill="white" />
  <rect x="17" y="19" width="3" height="2" fill="white" />
  <rect x="17" y="15" width="2" height="2" fill="white" />
  <rect x="17" y="17" width="2" height="2" fill="white" />
  <rect x="17" y="13" width="2" height="2" fill="white" />
  <rect x="17" y="11" width="2" height="2" fill="white" />
  <rect x="20" y="17" width="2" height="2" fill="white" />
  <rect x="22" y="15" width="2" height="2" fill="white" />
  <rect x="24" y="13" width="2" height="2" fill="white" />
</svg>