<svg width="643" height="700" viewBox="0 0 643 700" fill="none" xmlns="http://www.w3.org/2000/svg">
  <mask id="path-1-outside-1_86_272" maskUnits="userSpaceOnUse" x="17.0332" y="0" width="609"
    height="520" fill="black">
    <rect fill="white" x="17.0332" width="609" height="520" />
    <path fill-rule="evenodd" clip-rule="evenodd"
      d="M586.004 7H56.0035V41.9013H24.0332V478.28H56.11V513.068H586.004V477.766H618.681V42.0441H586.004V7Z" />
  </mask>
  <path fill-rule="evenodd" clip-rule="evenodd"
    d="M586.004 7H56.0035V41.9013H24.0332V478.28H56.11V513.068H586.004V477.766H618.681V42.0441H586.004V7Z"
    fill="white" />
  <path
    d="M56.0035 7V0.1334H49.1369V7H56.0035ZM586.004 7H592.87V0.1334H586.004V7ZM56.0035 41.9013V48.7679H62.8701V41.9013H56.0035ZM24.0332 41.9013V35.0347H17.1666V41.9013H24.0332ZM24.0332 478.28H17.1666V485.147H24.0332V478.28ZM56.11 478.28H62.9766V471.414H56.11V478.28ZM56.11 513.068H49.2434V519.935H56.11V513.068ZM586.004 513.068V519.935H592.87V513.068H586.004ZM586.004 477.766V470.9H579.137V477.766H586.004ZM618.681 477.766V484.633H625.547V477.766H618.681ZM618.681 42.0441H625.547V35.1775H618.681V42.0441ZM586.004 42.0441H579.137V48.9107H586.004V42.0441ZM56.0035 13.8666H586.004V0.1334H56.0035V13.8666ZM62.8701 41.9013V7H49.1369V41.9013H62.8701ZM24.0332 48.7679H56.0035V35.0347H24.0332V48.7679ZM30.8998 478.28V41.9013H17.1666V478.28H30.8998ZM56.11 471.414H24.0332V485.147H56.11V471.414ZM62.9766 513.068V478.28H49.2434V513.068H62.9766ZM586.004 506.202H56.11V519.935H586.004V506.202ZM592.87 513.068V477.766H579.137V513.068H592.87ZM586.004 484.633H618.681V470.9H586.004V484.633ZM611.814 42.0441V477.766H625.547V42.0441H611.814ZM586.004 48.9107H618.681V35.1775H586.004V48.9107ZM579.137 7V42.0441H592.87V7H579.137Z"
    fill="#717171" mask="url(#path-1-outside-1_86_272)" />
  <mask id="path-3-outside-2_86_272" maskUnits="userSpaceOnUse" x="72.6527" y="46.0059" width="498"
    height="370" fill="black">
    <rect fill="white" x="72.6527" y="46.0059" width="498" height="370" />
    <path fill-rule="evenodd" clip-rule="evenodd"
      d="M536.855 53.0059H105.642V77.5362H79.6527V384.146H105.728V408.696L537.072 408.696V384.166H563.061V77.9605H536.855V53.0059Z" />
  </mask>
  <path fill-rule="evenodd" clip-rule="evenodd"
    d="M536.855 53.0059H105.642V77.5362H79.6527V384.146H105.728V408.696L537.072 408.696V384.166H563.061V77.9605H536.855V53.0059Z"
    fill="#2D2D2D" />
  <path
    d="M105.642 53.0059V46.1393H98.7758V53.0059H105.642ZM536.855 53.0059H543.722V46.1393H536.855V53.0059ZM105.642 77.5362V84.4028H112.509V77.5362H105.642ZM79.6527 77.5362V70.6696H72.7861V77.5362H79.6527ZM79.6527 384.146H72.7861V391.012H79.6527V384.146ZM105.728 384.146H112.595V377.279H105.728V384.146ZM105.728 408.696H98.8613V415.562H105.728L105.728 408.696ZM537.072 408.696V415.562H543.938V408.696H537.072ZM537.072 384.166V377.299H530.205V384.166H537.072ZM563.061 384.166V391.032H569.928V384.166H563.061ZM563.061 77.9605H569.928V71.0939H563.061V77.9605ZM536.855 77.9605H529.989V84.8271H536.855V77.9605ZM105.642 59.8725H536.855V46.1393H105.642V59.8725ZM112.509 77.5362V53.0059H98.7758V77.5362H112.509ZM79.6527 84.4028H105.642V70.6696H79.6527V84.4028ZM86.5193 384.146V77.5362H72.7861V384.146H86.5193ZM105.728 377.279H79.6527V391.012H105.728V377.279ZM112.595 408.696V384.146H98.8613V408.696H112.595ZM537.072 401.829L105.728 401.829L105.728 415.562L537.072 415.562V401.829ZM543.938 408.696V384.166H530.205V408.696H543.938ZM537.072 391.032H563.061V377.299H537.072V391.032ZM556.195 77.9605V384.166H569.928V77.9605H556.195ZM536.855 84.8271H563.061V71.0939H536.855V84.8271ZM529.989 53.0059V77.9605H543.722V53.0059H529.989Z"
    fill="#717171" mask="url(#path-3-outside-2_86_272)" />
  <g opacity="0.2">
    <line x1="80" y1="64.5" x2="563" y2="64.5" stroke="white" />
    <line x1="80" y1="88.5" x2="563" y2="88.5" stroke="white" />
    <line x1="80" y1="112.5" x2="563" y2="112.5" stroke="white" />
    <line x1="80" y1="136.5" x2="563" y2="136.5" stroke="white" />
    <line x1="80" y1="160.5" x2="563" y2="160.5" stroke="white" />
    <line x1="80" y1="184.5" x2="563" y2="184.5" stroke="white" />
    <line x1="80" y1="208.5" x2="563" y2="208.5" stroke="white" />
    <line x1="80" y1="232.5" x2="563" y2="232.5" stroke="white" />
    <line x1="80" y1="256.5" x2="563" y2="256.5" stroke="white" />
    <line x1="80" y1="280.5" x2="563" y2="280.5" stroke="white" />
    <line x1="80" y1="304.5" x2="563" y2="304.5" stroke="white" />
    <line x1="80" y1="328.5" x2="563" y2="328.5" stroke="white" />
    <line x1="80" y1="352.5" x2="563" y2="352.5" stroke="white" />
    <line x1="80" y1="376.5" x2="563" y2="376.5" stroke="white" />
    <line x1="80" y1="400.5" x2="563" y2="400.5" stroke="white" />
    <line x1="80" y1="424.5" x2="563" y2="424.5" stroke="white" />
    <line x1="80" y1="448.5" x2="563" y2="448.5" stroke="white" />
    <line x1="80" y1="472.5" x2="563" y2="472.5" stroke="white" />
    <line x1="80" y1="496.5" x2="563" y2="496.5" stroke="white" />
    <line x1="80" y1="520.5" x2="563" y2="520.5" stroke="white" />
    <line x1="80" y1="544.5" x2="563" y2="544.5" stroke="white" />
    <line x1="80" y1="568.5" x2="563" y2="568.5" stroke="white" />
    <line x1="80" y1="592.5" x2="563" y2="592.5" stroke="white" />
    <line x1="80" y1="616.5" x2="563" y2="616.5" stroke="white" />
    <line x1="80" y1="640.5" x2="563" y2="640.5" stroke="white" />
  </g>
  <rect x="79.6527" y="451.956" width="13.7332" height="38.453" fill="#C8C8C8" />
  <rect x="104.372" y="451.956" width="13.7332" height="38.453" fill="#C8C8C8" />
  <rect x="129.092" y="451.956" width="13.7332" height="38.453" fill="#C8C8C8" />
  <rect x="153.812" y="451.956" width="13.7332" height="38.453" fill="#C8C8C8" />
  <rect x="178.532" y="451.956" width="13.7332" height="38.453" fill="#C8C8C8" />
  <rect x="203.252" y="451.956" width="41.1996" height="38.453" fill="#C8C8C8" />
  <rect x="512.248" y="455.389" width="34.333" height="31.5864" stroke="#727272"
    stroke-width="6.8666" />
  <rect x="61.7998" y="513.065" width="519.115" height="17.1665" fill="#727272" />
  <rect x="24.0332" y="530.231" width="594.648" height="17.1665" fill="#464646" />
  <rect x="14.4203" y="547.398" width="613.874" height="17.1665" fill="#959595" />
  <rect x="3.00024" y="567.564" width="636.714" height="128.585" fill="white" stroke="#717171"
    stroke-width="6" />
  <rect x="25.4067" y="589.971" width="10.2999" height="38.453" fill="#C8C8C8" />
  <rect x="25.4067" y="635.29" width="10.2999" height="38.453" fill="#C8C8C8" />
  <rect x="50.1265" y="589.971" width="10.2999" height="38.453" fill="#C8C8C8" />
  <rect x="50.1265" y="635.29" width="10.2999" height="38.453" fill="#C8C8C8" />
  <rect x="74.8462" y="589.971" width="10.2999" height="38.453" fill="#C8C8C8" />
  <rect x="74.8462" y="635.29" width="10.2999" height="38.453" fill="#C8C8C8" />
  <rect x="99.5659" y="589.971" width="10.2999" height="38.453" fill="#C8C8C8" />
  <rect x="99.5659" y="635.29" width="10.2999" height="38.453" fill="#C8C8C8" />
  <rect x="124.286" y="589.971" width="10.2999" height="38.453" fill="#C8C8C8" />
  <rect x="124.286" y="635.29" width="10.2999" height="38.453" fill="#C8C8C8" />
  <mask id="path-52-inside-3_86_272" fill="white">
    <path fill-rule="evenodd" clip-rule="evenodd"
      d="M590.528 607.827H542.462V614.693H433.969V649.026H542.462V655.893H590.528V607.827Z" />
  </mask>
  <path fill-rule="evenodd" clip-rule="evenodd"
    d="M590.528 607.827H542.462V614.693H433.969V649.026H542.462V655.893H590.528V607.827Z"
    fill="#D9D9D9" />
  <path
    d="M542.462 607.827V600.961H535.595V607.827H542.462ZM590.528 607.827H597.394V600.961H590.528V607.827ZM542.462 614.693V621.56H549.328V614.693H542.462ZM433.969 614.693V607.827H427.103V614.693H433.969ZM433.969 649.026H427.103V655.893H433.969V649.026ZM542.462 649.026H549.328V642.16H542.462V649.026ZM542.462 655.893H535.595V662.76H542.462V655.893ZM590.528 655.893V662.76H597.394V655.893H590.528ZM542.462 614.694H590.528V600.961H542.462V614.694ZM549.328 614.693V607.827H535.595V614.693H549.328ZM433.969 621.56H542.462V607.827H433.969V621.56ZM440.836 649.026V614.693H427.103V649.026H440.836ZM542.462 642.16H433.969V655.893H542.462V642.16ZM549.328 655.893V649.026H535.595V655.893H549.328ZM590.528 649.027H542.462V662.76H590.528V649.027ZM583.661 607.827V655.893H597.394V607.827H583.661Z"
    fill="#727272" mask="url(#path-52-inside-3_86_272)" />
</svg>
  